<svg width="18" height="18" viewBox="0 0 18 18" fill="none" xmlns="http://www.w3.org/2000/svg">
<path d="M16.2002 2.25C17.2001 2.25009 18 2.95005 18 3.75V11.9502C17.9999 12.7501 17.2 13.4501 16.2002 13.4502H13.5L14.4004 14.25V15.75H3.59961V14.25L4.5 13.4502H1.7998C0.799977 13.4501 0.000130314 12.7501 0 11.9502V3.75C0 2.95005 0.799896 2.25009 1.7998 2.25H16.2002ZM1.7998 12.0498H16.2002V3.75H1.7998V12.0498ZM13.6006 5.34961C13.8764 5.34998 14.1006 5.57369 14.1006 5.84961V7.5498C14.1005 7.82563 13.8763 8.04944 13.6006 8.0498C13.3245 8.0498 13.1007 7.82586 13.1006 7.5498V7.0625L10.3242 9.43066C10.1542 9.57566 9.90863 9.59058 9.72266 9.4668L6.75098 7.48535L4.14062 9.91602C3.93852 10.1042 3.62176 10.0927 3.43359 9.89062C3.24584 9.68854 3.25712 9.37263 3.45898 9.18457L6.35938 6.48438L6.42676 6.43164C6.5919 6.32385 6.80898 6.32219 6.97754 6.43457L9.96191 8.4248L12.3955 6.34961H11.9004C11.6242 6.34961 11.4004 6.12575 11.4004 5.84961C11.4004 5.57347 11.6242 5.34961 11.9004 5.34961H13.6006Z" fill="white"/>
</svg>
