<svg width="49" height="49" viewBox="0 0 49 49" fill="none" xmlns="http://www.w3.org/2000/svg">
<circle cx="24.5" cy="24.5" r="24.5" fill="#06428B"></circle>
<path d="M24.5 12C19.5294 12 15.5 16.0294 15.5 21C15.5 27.75 24.5 37 24.5 37C24.5 37 33.5 27.75 33.5 21C33.5 16.0294 29.4706 12 24.5 12Z" fill="#F9F9F9"></path>
<circle cx="24.5" cy="21" r="3.5" fill="#06428B"></circle>
<path d="M11 19L17 16.5V33.5L11 36V19Z" fill="#F9F9F9"></path>
<path d="M17 16.5L23.5 19V36L17 33.5V16.5Z" fill="#F9F9F9"></path>
<path d="M23.5 19L30 16.5V33.5L23.5 36V19Z" fill="#F9F9F9"></path>
<path d="M30 16.5L36 19V36L30 33.5V16.5Z" fill="#F9F9F9"></path>
</svg>